<svg width="20" height="20" viewBox="0 0 20 20" fill="none" xmlns="http://www.w3.org/2000/svg">
<path fill-rule="evenodd" clip-rule="evenodd" d="M9.16659 3.33366C8.70635 3.33366 8.33325 3.70675 8.33325 4.16699C8.33325 4.62723 8.70635 5.00033 9.16659 5.00033H10.8333C11.2935 5.00033 11.6666 4.62723 11.6666 4.16699C11.6666 3.70676 11.2935 3.33366 10.8333 3.33366H9.16659ZM6.80884 3.33366C7.15204 2.36267 8.07807 1.66699 9.16659 1.66699H10.8333C11.9218 1.66699 12.8478 2.36267 13.191 3.33366H14.1666C14.8296 3.33366 15.4655 3.59705 15.9344 4.06589C16.4032 4.53473 16.6666 5.17062 16.6666 5.83366V15.8337C16.6666 16.4967 16.4032 17.1326 15.9344 17.6014C15.4655 18.0703 14.8296 18.3337 14.1666 18.3337H5.83325C5.17021 18.3337 4.53433 18.0703 4.06548 17.6014C3.59664 17.1326 3.33325 16.4967 3.33325 15.8337V5.83366C3.33325 5.17062 3.59664 4.53473 4.06548 4.06589C4.53433 3.59705 5.17021 3.33366 5.83325 3.33366H6.80884ZM6.80884 5.00033H5.83325C5.61224 5.00033 5.40028 5.08812 5.244 5.2444C5.08772 5.40068 4.99992 5.61265 4.99992 5.83366V15.8337C4.99992 16.0547 5.08772 16.2666 5.244 16.4229C5.40028 16.5792 5.61224 16.667 5.83325 16.667H14.1666C14.3876 16.667 14.5996 16.5792 14.7558 16.4229C14.9121 16.2666 14.9999 16.0547 14.9999 15.8337V5.83366C14.9999 5.61265 14.9121 5.40068 14.7558 5.2444C14.5996 5.08812 14.3876 5.00033 14.1666 5.00033H13.191C12.8478 5.97132 11.9218 6.66699 10.8333 6.66699H9.16659C8.07807 6.66699 7.15204 5.97132 6.80884 5.00033ZM7.49992 9.16699C7.96016 9.16699 8.33325 9.54009 8.33325 10.0003V14.167C8.33325 14.6272 7.96016 15.0003 7.49992 15.0003C7.03968 15.0003 6.66659 14.6272 6.66659 14.167V10.0003C6.66659 9.54009 7.03968 9.16699 7.49992 9.16699ZM12.4999 10.8337C12.9602 10.8337 13.3333 11.2068 13.3333 11.667V14.167C13.3333 14.6272 12.9602 15.0003 12.4999 15.0003C12.0397 15.0003 11.6666 14.6272 11.6666 14.167V11.667C11.6666 11.2068 12.0397 10.8337 12.4999 10.8337ZM9.99992 12.5003C10.4602 12.5003 10.8333 12.8734 10.8333 13.3337V14.167C10.8333 14.6272 10.4602 15.0003 9.99992 15.0003C9.53968 15.0003 9.16659 14.6272 9.16659 14.167V13.3337C9.16659 12.8734 9.53968 12.5003 9.99992 12.5003Z" fill="white"/>
</svg>
