<svg width="19" height="18" viewBox="0 0 19 18" fill="none" xmlns="http://www.w3.org/2000/svg">
<path fill-rule="evenodd" clip-rule="evenodd" d="M0.75 2C0.75 0.89543 1.64543 0 2.75 0C3.85457 0 4.75 0.89543 4.75 2C4.75 3.10457 3.85457 4 2.75 4C1.64543 4 0.75 3.10457 0.75 2ZM7.75 2C7.75 0.89543 8.64543 0 9.75 0C10.8546 0 11.75 0.89543 11.75 2C11.75 3.10457 10.8546 4 9.75 4C8.64543 4 7.75 3.10457 7.75 2ZM14.75 2C14.75 0.89543 15.6454 0 16.75 0C17.8546 0 18.75 0.89543 18.75 2C18.75 3.10457 17.8546 4 16.75 4C15.6454 4 14.75 3.10457 14.75 2ZM0.75 9C0.75 7.89543 1.64543 7 2.75 7C3.85457 7 4.75 7.89543 4.75 9C4.75 10.1046 3.85457 11 2.75 11C1.64543 11 0.75 10.1046 0.75 9ZM7.75 9C7.75 7.89543 8.64543 7 9.75 7C10.8546 7 11.75 7.89543 11.75 9C11.75 10.1046 10.8546 11 9.75 11C8.64543 11 7.75 10.1046 7.75 9ZM14.75 9C14.75 7.89543 15.6454 7 16.75 7C17.8546 7 18.75 7.89543 18.75 9C18.75 10.1046 17.8546 11 16.75 11C15.6454 11 14.75 10.1046 14.75 9ZM0.75 16C0.75 14.8954 1.64543 14 2.75 14C3.85457 14 4.75 14.8954 4.75 16C4.75 17.1046 3.85457 18 2.75 18C1.64543 18 0.75 17.1046 0.75 16ZM7.75 16C7.75 14.8954 8.64543 14 9.75 14C10.8546 14 11.75 14.8954 11.75 16C11.75 17.1046 10.8546 18 9.75 18C8.64543 18 7.75 17.1046 7.75 16ZM14.75 16C14.75 14.8954 15.6454 14 16.75 14C17.8546 14 18.75 14.8954 18.75 16C18.75 17.1046 17.8546 18 16.75 18C15.6454 18 14.75 17.1046 14.75 16Z" fill="white"/>
</svg>
